<svg xmlns="http://www.w3.org/2000/svg" fill="none" viewBox="0 0 64 64" id="Ganache--Streamline-Svg-Logos" height="64" width="64">
  <desc>
    Ganache Streamline Icon: https://streamlinehq.com
  </desc>
  <path fill="#5e464d" d="M16.745733333333334 48.184799999999996c0.26639999999999997 -0.0015999999999999999 0.5314 0.039266666666666665 0.7849333333333333 0.12113333333333333 0.23093333333333332 0.07386666666666666 0.44486666666666663 0.19299999999999998 0.6292666666666666 0.3504666666666666 0.17426666666666668 0.15333333333333332 0.3139333333333333 0.3419333333333333 0.40986666666666666 0.5533333333333332 0.10533333333333333 0.23006666666666667 0.1578 0.48079999999999995 0.15373333333333333 0.7337333333333333 0.00006666666666666667 0.2564666666666666 -0.049333333333333326 0.5104666666666666 -0.14553333333333332 0.7481333333333333 -0.09826666666666667 0.2432 -0.22999999999999998 0.47153333333333336 -0.3914666666666667 0.6784 -0.16846666666666665 0.2178 -0.36253333333333326 0.41459999999999997 -0.5779333333333333 0.5861333333333333 -0.21319999999999997 0.1731333333333333 -0.44239999999999996 0.3254666666666667 -0.6845333333333332 0.45499999999999996 -0.23273333333333335 0.12353333333333333 -0.47806666666666664 0.2218 -0.7317333333333332 0.29306666666666664 -0.2332 0.06739999999999999 -0.4745333333333333 0.10253333333333332 -0.7173333333333334 0.10453333333333333 -0.17546666666666666 0.0036 -0.3466 -0.054400000000000004 -0.4836666666666667 -0.16393333333333332 -0.14606666666666665 -0.12926666666666664 -0.22213333333333332 -0.3202 -0.20493333333333333 -0.5144666666666666 0.0006 -0.055466666666666664 0.004 -0.11086666666666667 0.010199999999999999 -0.16599999999999998 0.0074 -0.05613333333333333 0.019066666666666666 -0.11159999999999999 0.034866666666666664 -0.16599999999999998 0.012133333333333333 -0.04513333333333333 0.030066666666666665 -0.08853333333333332 0.053266666666666664 -0.12913333333333332 0.013333333333333332 -0.030199999999999998 0.04279999999999999 -0.050133333333333335 0.07586666666666667 -0.051199999999999996 0.0262 0.0005333333333333334 0.05173333333333333 0.008333333333333333 0.07373333333333333 0.02253333333333333 0.028333333333333335 0.0194 0.05853333333333333 0.035866666666666665 0.0902 0.0492 0.05059999999999999 0.0202 0.10266666666666666 0.03666666666666667 0.1558 0.049133333333333334 0.09026666666666666 0.018666666666666665 0.1824 0.02693333333333333 0.27459999999999996 0.0246 0.22006666666666666 -0.0052 0.4368666666666666 -0.05466666666666667 0.6374 -0.14546666666666666 0.2268 -0.09886666666666666 0.438 -0.23006666666666667 0.6272 -0.3894666666666667 0.19346666666666668 -0.15526666666666666 0.3591333333333333 -0.3423999999999999 0.4898 -0.5533333333333332 0.12313333333333333 -0.19599999999999998 0.18913333333333332 -0.4224 0.1906 -0.6537999999999999 -0.0013333333333333333 -0.08959999999999999 -0.017933333333333332 -0.17833333333333334 -0.049133333333333334 -0.2623333333333333 -0.03473333333333333 -0.09566666666666665 -0.0892 -0.183 -0.15986666666666666 -0.2562 -0.08246666666666666 -0.08793333333333332 -0.18226666666666663 -0.15773333333333334 -0.2931333333333333 -0.205 -0.14253333333333332 -0.05706666666666666 -0.29533333333333334 -0.08426666666666667 -0.4488 -0.07993333333333333 -0.3263333333333333 -0.0029999999999999996 -0.6491333333333333 0.067 -0.9448666666666666 0.205 -0.3147333333333333 0.14933333333333332 -0.6028 0.34946666666666665 -0.8525999999999999 0.5922666666666666 -0.27586666666666665 0.2659333333333333 -0.5206666666666666 0.5622666666666667 -0.7296666666666667 0.8834 -0.224 0.3432 -0.41346666666666665 0.7077333333333333 -0.5656666666666667 1.0882666666666667 -0.15666666666666665 0.3959333333333333 -0.2760666666666667 0.8055333333333332 -0.35660000000000003 1.2235999999999998 -0.08499999999999999 0.4099333333333333 -0.12826666666666664 0.8274666666666667 -0.12913333333333332 1.2461333333333333 -0.005933333333333333 0.46373333333333333 0.037399999999999996 0.9268000000000001 0.12913333333333332 1.3813999999999997 0.0718 0.3637333333333333 0.19613333333333333 0.7151333333333333 0.36893333333333334 1.0432 0.13493333333333332 0.2594666666666666 0.32613333333333333 0.4856666666666667 0.5595333333333333 0.6619999999999999 0.20239999999999997 0.14946666666666666 0.44719999999999993 0.23059999999999997 0.6988666666666666 0.23159999999999997 0.25106666666666666 0.0027333333333333333 0.4998666666666667 -0.048266666666666666 0.7296 -0.14966666666666667 0.21919999999999998 -0.09633333333333333 0.42079999999999995 -0.22866666666666668 0.5964666666666667 -0.39139999999999997 0.18053333333333332 -0.16999999999999998 0.3370666666666667 -0.3637333333333333 0.46519999999999995 -0.5759333333333333 0.1298 -0.21339999999999998 0.24086666666666667 -0.43766666666666665 0.3320666666666666 -0.6702 0.0878 -0.224 0.15633333333333332 -0.4550666666666666 0.20493333333333333 -0.6907333333333333 0.04306666666666667 -0.20839999999999997 0.06566666666666666 -0.42046666666666666 0.06766666666666667 -0.6332666666666666 -0.0002666666666666667 -0.08426666666666667 -0.005066666666666666 -0.1684 -0.0144 -0.2521333333333333 -0.008533333333333334 -0.0728 -0.013333333333333332 -0.146 -0.014333333333333332 -0.21926666666666667 -0.004 -0.05566666666666667 0.0104 -0.11113333333333332 0.040999999999999995 -0.1578 0.0288 -0.03733333333333333 0.067 -0.06633333333333333 0.11066666666666666 -0.08406666666666665 0.05106666666666666 -0.020133333333333333 0.10506666666666666 -0.03186666666666667 0.15986666666666666 -0.0348h0.1906c0.0828 0.0021999999999999997 0.16493333333333332 0.016 0.24393333333333334 0.040933333333333335 0.09153333333333333 0.028066666666666663 0.17959999999999998 0.06653333333333333 0.2623333333333333 0.11479999999999999 0.07686666666666667 0.04553333333333333 0.146 0.10293333333333334 0.20493333333333333 0.1701333333333333 0.0542 0.054733333333333335 0.08566666666666667 0.12793333333333332 0.08813333333333334 0.20493333333333333 -0.040999999999999995 0.38326666666666664 -0.06559999999999999 0.7480666666666667 -0.07579999999999999 1.0924 -0.010266666666666667 0.34433333333333327 -0.016399999999999998 0.6927333333333332 -0.016399999999999998 1.0493999999999999v2.2298666666666667c0.14753333333333332 -0.0246 0.291 -0.038933333333333334 0.43039999999999995 -0.0492l0.39966666666666667 -0.026666666666666665c0.1824 0 0.3012666666666667 0.040999999999999995 0.35453333333333337 0.1558 0.05433333333333333 0.12066666666666666 0.06233333333333333 0.25706666666666667 0.02253333333333333 0.38326666666666664 -0.0406 0.14693333333333333 -0.11499999999999999 0.2824 -0.21719999999999998 0.39553333333333335 -0.08959999999999999 0.11126666666666665 -0.22226666666666664 0.17906666666666665 -0.3648666666666667 0.18653333333333333h-0.33199999999999996c-0.06273333333333334 0 -0.12393333333333334 0.004399999999999999 -0.1886 0.010199999999999999l-0.13526666666666665 0.012333333333333332c-0.014333333333333332 0.26646666666666663 -0.038933333333333334 0.5369999999999999 -0.0676 0.8095999999999999 -0.030533333333333332 0.26766666666666666 -0.08053333333333333 0.5327333333333333 -0.14959999999999998 0.7931333333333332 -0.06526666666666667 0.24786666666666668 -0.15446666666666664 0.48879999999999996 -0.26646666666666663 0.7193999999999999 -0.10373333333333332 0.21639999999999998 -0.2422 0.4144 -0.4099333333333333 0.5861333333333333 -0.16706666666666664 0.16906666666666664 -0.36639999999999995 0.3028666666666666 -0.5861333333333333 0.39353333333333335 -0.229 0.0922 -0.4728 0.14153333333333332 -0.7191333333333333 0.14579999999999999l-0.08226666666666665 -0.0002666666666666667c-0.24566666666666664 0.003666666666666666 -0.4898 -0.039466666666666664 -0.7193333333333333 -0.12706666666666666 -0.19886666666666666 -0.0808 -0.3799333333333333 -0.19993333333333332 -0.5329333333333333 -0.3504666666666666 -0.1529333333333333 -0.15026666666666666 -0.2724 -0.3311333333333333 -0.3504666666666666 -0.5308666666666666 -0.08353333333333332 -0.21126666666666666 -0.12526666666666667 -0.43679999999999997 -0.12293333333333334 -0.6639999999999999 -0.006066666666666666 -0.3358 0.07813333333333333 -0.6670666666666666 0.24386666666666668 -0.9592 0.16566666666666666 -0.2846666666666666 0.3840666666666666 -0.5350666666666666 0.6436 -0.7378666666666667 0.28026666666666666 -0.22093333333333331 0.5891333333333333 -0.40293333333333337 0.9181333333333332 -0.5410666666666666 0.3446666666666667 -0.14739999999999998 0.6986666666666667 -0.27199999999999996 1.0596666666666665 -0.373l-0.0002666666666666667 -0.3615333333333333 -0.0018 -0.20873333333333333c-0.0015333333333333332 -0.10106666666666667 -0.004266666666666667 -0.19726666666666665 -0.008933333333333333 -0.2887333333333333l-0.005399999999999999 -0.08993333333333332c-0.010266666666666667 -0.14733333333333332 -0.011733333333333333 -0.2818 -0.011333333333333334 -0.40399999999999997l0.0010666666666666667 -0.20679999999999998c-0.29486666666666667 0.4101333333333333 -0.6674 0.7583333333333333 -1.0965333333333334 1.0248 -0.397 0.24126666666666666 -0.8532666666666666 0.3676 -1.3177999999999999 0.3648 -0.4491333333333333 0.0078 -0.8926 -0.10093333333333333 -1.2871333333333332 -0.3156 -0.38366666666666666 -0.21713333333333332 -0.7092 -0.5237333333333333 -0.9489333333333333 -0.8936 -0.27299999999999996 -0.4255333333333333 -0.47059999999999996 -0.8949333333333334 -0.5841333333333333 -1.3875333333333333 -0.14066666666666666 -0.5935333333333332 -0.20946666666666663 -1.2018666666666666 -0.20493333333333333 -1.8117999999999999 0.0016666666666666666 -0.48666666666666664 0.055266666666666665 -0.9717333333333333 0.15986666666666666 -1.447 0.10666666666666666 -0.49306666666666665 0.2639333333333333 -0.9738666666666667 0.46933333333333327 -1.4346666666666668 0.20426666666666665 -0.46573333333333333 0.4556 -0.9093333333333333 0.7501333333333333 -1.3239999999999998 0.2852 -0.40313333333333334 0.6229333333333333 -0.7663333333333333 1.0042666666666666 -1.0800666666666667 0.37439999999999996 -0.30519999999999997 0.7931999999999999 -0.5511999999999999 1.242 -0.7296666666666667 0.46333333333333326 -0.1824 0.9572666666666666 -0.2742 1.4551999999999998 -0.2707333333333333Zm0.34839999999999993 11.918266666666668c-0.4406 0.1078 -0.8493999999999999 0.3184666666666667 -1.1927999999999999 0.6148666666666667 -0.2618 0.23413333333333333 -0.41100000000000003 0.569 -0.4099333333333333 0.9202 -0.02453333333333333 0.16026666666666667 0.024866666666666665 0.3230666666666666 0.13446666666666665 0.4425333333333333 0.10953333333333333 0.11953333333333332 0.26739999999999997 0.1829333333333333 0.42913333333333337 0.17233333333333334l-0.010199999999999999 -0.010199999999999999c0.16593333333333332 0.0022666666666666664 0.3262 -0.060200000000000004 0.4468 -0.17426666666666668 0.1363333333333333 -0.13219999999999998 0.24139999999999998 -0.2932666666666667 0.3074 -0.47133333333333327 0.08886666666666666 -0.21719999999999998 0.15413333333333332 -0.4432666666666667 0.19473333333333334 -0.6743333333333333 0.048666666666666664 -0.2712 0.0822 -0.5448666666666666 0.1004 -0.8198Zm24.860933333333335 -11.038799999999998c0.13953333333333334 0.1036 0.22226666666666664 0.2668 0.2234 0.4406v4.654533333333333c0.10339999999999999 -0.19240000000000002 0.21913333333333332 -0.37786666666666663 0.34633333333333327 -0.5553999999999999 0.11986666666666665 -0.16293333333333332 0.2573333333333333 -0.31206666666666666 0.4099333333333333 -0.4448 0.13779999999999998 -0.12326666666666666 0.2941333333333333 -0.22426666666666664 0.46319999999999995 -0.29919999999999997 0.14846666666666666 -0.06319999999999999 0.307 -0.09886666666666666 0.46786666666666665 -0.10553333333333333l0.06906666666666667 -0.0010666666666666667c0.22133333333333333 -0.0086 0.4414 0.0364 0.6415333333333333 0.13119999999999998 0.15739999999999998 0.0798 0.2931333333333333 0.19653333333333334 0.39553333333333335 0.34019999999999995 0.09873333333333334 0.13906666666666667 0.16846666666666665 0.2966 0.205 0.46319999999999995 0.03766666666666667 0.16333333333333333 0.056933333333333336 0.33039999999999997 0.05739999999999999 0.49806666666666666v3.0927333333333333c0.005266666666666667 0.07473333333333333 0.020466666666666668 0.14846666666666666 0.04506666666666666 0.21926666666666667 0.0254 0.072 0.06593333333333333 0.13766666666666666 0.11886666666666665 0.19266666666666665 0.05433333333333333 0.05173333333333333 0.12539999999999998 0.08146666666666666 0.19966666666666666 0.08446666666666666l0.03193333333333333 -0.00039999999999999996c0.15086666666666665 0.0029333333333333334 0.2972666666666667 -0.05126666666666666 0.4099333333333333 -0.15166666666666667 0.11986666666666665 -0.10933333333333334 0.22033333333333333 -0.23826666666666665 0.2971333333333333 -0.3812 0.08473333333333333 -0.15806666666666666 0.15339999999999998 -0.32426666666666665 0.205 -0.496l0.029933333333333333 -0.10553333333333333 0.03293333333333333 -0.11993333333333334c-0.0388 -0.19926666666666665 -0.0566 -0.40259999999999996 -0.05266666666666667 -0.6066666666666667 -0.0038 -0.4254 0.06553333333333333 -0.8483333333333333 0.205 -1.2502 0.12433333333333332 -0.3608 0.3071333333333333 -0.6986666666666667 0.5410666666666666 -1.0002 0.20853333333333335 -0.26826666666666665 0.46753333333333336 -0.4931333333333333 0.7624 -0.6619999999999999 0.26626666666666665 -0.15353333333333333 0.5678 -0.2354 0.8752 -0.2377333333333333 0.2016 -0.0031999999999999997 0.4019333333333333 0.032266666666666666 0.5902666666666666 0.10453333333333333 0.1686 0.06373333333333334 0.3211333333333333 0.1638 0.4468 0.29306666666666664 0.1226 0.13019999999999998 0.2168 0.28446666666666665 0.2766666666666666 0.4529333333333333 0.05893333333333334 0.18473333333333333 0.08593333333333332 0.37806666666666666 0.07993333333333333 0.5718666666666666 -0.001 0.2799333333333333 -0.051666666666666666 0.5575333333333333 -0.14959999999999998 0.8198 -0.10273333333333332 0.28413333333333335 -0.2516 0.5493333333333332 -0.44066666666666665 0.7849333333333333 -0.20686666666666667 0.25666666666666665 -0.45066666666666666 0.48119999999999996 -0.7235333333333333 0.6661333333333332 -0.30393333333333333 0.2036 -0.6399333333333332 0.3546666666666667 -0.994 0.4468 0.05273333333333333 0.12273333333333333 0.12166666666666666 0.23786666666666667 0.20493333333333333 0.3422666666666666 0.08446666666666666 0.1094 0.18626666666666664 0.2042 0.30133333333333334 0.2808 0.12619999999999998 0.08293333333333333 0.2644666666666666 0.14586666666666664 0.40986666666666666 0.18646666666666667 0.14966666666666667 0.042466666666666666 0.304 0.0658 0.4592666666666666 0.06946666666666666l0.07773333333333332 0.0002666666666666667c0.27 0.0072 0.5382 -0.046 0.7849999999999999 -0.1558 0.20953333333333335 -0.09799999999999999 0.3970666666666667 -0.23746666666666666 0.5512666666666666 -0.40986666666666666 0.15 -0.17206666666666665 0.2724 -0.36639999999999995 0.3628 -0.5759333333333333 0.08953333333333333 -0.2072 0.15813333333333332 -0.42279999999999995 0.20493333333333333 -0.6435333333333333 0.01873333333333333 -0.1336 0.09919999999999998 -0.25053333333333333 0.21726666666666666 -0.31566666666666665 0.10386666666666666 -0.05266666666666667 0.22333333333333333 -0.0658 0.3361333333333333 -0.036866666666666666 0.11446666666666666 0.027666666666666666 0.218 0.08906666666666666 0.29719999999999996 0.17626666666666668 0.08099999999999999 0.0862 0.11866666666666666 0.20453333333333334 0.10246666666666666 0.3217333333333333 -0.025466666666666665 0.16566666666666666 -0.05966666666666666 0.32986666666666664 -0.10246666666666666 0.49193333333333333 -0.05273333333333333 0.19419999999999998 -0.1256 0.38239999999999996 -0.21726666666666666 0.5615333333333333 -0.10339999999999999 0.19853333333333334 -0.2278 0.3854666666666667 -0.371 0.5574666666666667 -0.15826666666666667 0.1893333333333333 -0.34406666666666663 0.35379999999999995 -0.5513333333333332 0.4878 -0.2387333333333333 0.15213333333333331 -0.49833333333333335 0.2688 -0.7706 0.34639999999999993 -0.3293333333333333 0.09259999999999999 -0.6704 0.13673333333333332 -1.0124666666666666 0.13113333333333332 -0.3503333333333333 -0.0006666666666666666 -0.6976 -0.06526666666666667 -1.0248 -0.1906 -0.3269333333333333 -0.12373333333333332 -0.6268666666666667 -0.3095333333333333 -0.8833333333333333 -0.5471999999999999 -0.11113333333333332 -0.10519999999999999 -0.21273333333333333 -0.21946666666666664 -0.30379999999999996 -0.34146666666666664 -0.06853333333333333 0.10959999999999999 -0.14446666666666666 0.21473333333333333 -0.227 0.31479999999999997 -0.17766666666666667 0.218 -0.3945333333333333 0.40079999999999993 -0.6394666666666666 0.5390666666666666 -0.24686666666666668 0.13673333333333332 -0.5232666666666667 0.21053333333333335 -0.8047333333333333 0.21539999999999998l-0.07039999999999999 -0.00019999999999999998c-0.18993333333333332 0.004066666666666666 -0.37859999999999994 -0.032266666666666666 -0.5533999999999999 -0.10659999999999999 -0.15426666666666666 -0.06853333333333333 -0.2935333333333333 -0.16673333333333332 -0.4099333333333333 -0.289 -0.11413333333333332 -0.12153333333333333 -0.20199999999999999 -0.26526666666666665 -0.2582 -0.42219999999999996 -0.0586 -0.16446666666666665 -0.08839999999999999 -0.3378 -0.08813333333333334 -0.5124v-3.182933333333333c-0.0044666666666666665 -0.08673333333333333 -0.018933333333333333 -0.17273333333333332 -0.04306666666666667 -0.2562 -0.018333333333333333 -0.06566666666666666 -0.052066666666666664 -0.12613333333333332 -0.09833333333333333 -0.17619999999999997 -0.047999999999999994 -0.04526666666666666 -0.11246666666666666 -0.06899999999999999 -0.17833333333333334 -0.06559999999999999 -0.15573333333333333 0.0206 -0.3 0.09273333333333333 -0.4099333333333333 0.20493333333333333 -0.1819333333333333 0.15953333333333333 -0.34306666666666663 0.3413333333333333 -0.4796 0.5410666666666666 -0.1636 0.23506666666666667 -0.30106666666666665 0.4872666666666666 -0.40986666666666666 0.7522 -0.11613333333333332 0.26746666666666663 -0.19206666666666666 0.5506666666666666 -0.22546666666666665 0.8403333333333333v2.277c-0.0006 0.0668 -0.016 0.1326 -0.04506666666666666 0.19266666666666665 -0.028466666666666668 0.05973333333333333 -0.07319999999999999 0.11019999999999999 -0.12913333333333332 0.14553333333333332 -0.06673333333333333 0.0378 -0.14166666666666666 0.058399999999999994 -0.21793333333333334 0.06013333333333333l-0.038266666666666664 -0.0007333333333333333c-0.08253333333333332 -0.0006666666666666666 -0.16486666666666666 -0.008866666666666665 -0.24593333333333334 -0.0246 -0.08626666666666666 -0.014466666666666666 -0.16899999999999998 -0.04506666666666666 -0.24393333333333334 -0.09013333333333332 -0.07579999999999999 -0.04546666666666666 -0.1386 -0.10973333333333332 -0.1824 -0.18653333333333333 -0.05346666666666666 -0.09853333333333332 -0.07893333333333333 -0.2098 -0.07373333333333333 -0.3218l-0.0003333333333333333 -0.13666666666666666c-0.11446666666666666 0.10573333333333332 -0.23853333333333332 0.20093333333333332 -0.3706666666666667 0.28426666666666667 -0.24266666666666664 0.15173333333333333 -0.5055333333333333 0.2683333333333333 -0.7808666666666666 0.34639999999999993 -0.3303333333333333 0.09066666666666667 -0.6719999999999999 0.13346666666666665 -1.0145333333333333 0.12706666666666666 -0.3428 0.00046666666666666666 -0.6831333333333333 -0.0578 -1.0063333333333333 -0.17219999999999996 -0.3194 -0.11266666666666666 -0.6133333333333333 -0.2875333333333333 -0.8648666666666666 -0.5144 -0.11079999999999998 -0.10073333333333334 -0.21193333333333333 -0.21093333333333333 -0.3024 -0.32913333333333333 -0.05853333333333333 0.08886666666666666 -0.12179999999999999 0.17479999999999998 -0.18953333333333333 0.25739999999999996 -0.17886666666666665 0.21833333333333332 -0.39713333333333334 0.4012 -0.6435333333333333 0.5389999999999999 -0.26886666666666664 0.14826666666666666 -0.5722666666666667 0.22246666666666665 -0.8792666666666666 0.21519999999999997 -0.24853333333333333 0.005866666666666667 -0.4947333333333333 -0.04906666666666666 -0.7173333333333334 -0.15986666666666666 -0.1933333333333333 -0.0974 -0.35839999999999994 -0.24280000000000002 -0.4796 -0.42219999999999996 -0.1654 0.16686666666666666 -0.3572666666666667 0.3054 -0.5677333333333333 0.4099333333333333 -0.21833333333333332 0.107 -0.45719999999999994 0.16499999999999998 -0.6998 0.1701333333333333l-0.07286666666666666 -0.00006666666666666667c-0.27686666666666665 0.005666666666666667 -0.5514666666666667 -0.05106666666666666 -0.8034 -0.16599999999999998 -0.22526666666666664 -0.10586666666666666 -0.4241333333333333 -0.2606 -0.5820666666666666 -0.4529333333333333l-0.040999999999999995 -0.05273333333333333c-0.16486666666666666 0.18019999999999997 -0.35706666666666664 0.3335333333333333 -0.5697333333333333 0.45446666666666663 -0.24686666666666668 0.13673333333333332 -0.5232666666666667 0.21053333333333335 -0.8047333333333333 0.21539999999999998l-0.07046666666666666 -0.00019999999999999998c-0.18993333333333332 0.004066666666666666 -0.3785333333333333 -0.032266666666666666 -0.5533333333333332 -0.10659999999999999 -0.15426666666666666 -0.06853333333333333 -0.2935333333333333 -0.16673333333333332 -0.4099333333333333 -0.289 -0.11486666666666667 -0.121 -0.20286666666666667 -0.26486666666666664 -0.25826666666666664 -0.42219999999999996 -0.05853333333333333 -0.16446666666666665 -0.08833333333333333 -0.3378 -0.08813333333333334 -0.5124v-3.182933333333333c-0.004399999999999999 -0.08673333333333333 -0.018866666666666664 -0.17273333333333332 -0.043 -0.2562 -0.018333333333333333 -0.06566666666666666 -0.052066666666666664 -0.12613333333333332 -0.0984 -0.17619999999999997 -0.048600000000000004 -0.0456 -0.11379999999999998 -0.06933333333333333 -0.18033333333333335 -0.06559999999999999 -0.15566666666666668 0.020733333333333333 -0.29993333333333333 0.09286666666666667 -0.4099333333333333 0.20493333333333333 -0.1834 0.15926666666666667 -0.34586666666666666 0.3410666666666667 -0.4836666666666667 0.5410666666666666 -0.1634 0.23373333333333335 -0.3008666666666666 0.4846 -0.4099333333333333 0.7480666666666667 -0.11606666666666667 0.2675333333333333 -0.19206666666666666 0.5506666666666666 -0.22546666666666665 0.8403333333333333v2.2770666666666664c-0.0022666666666666664 0.06673333333333333 -0.018333333333333333 0.13233333333333333 -0.04713333333333333 0.19266666666666665 -0.028399999999999998 0.05966666666666666 -0.07319999999999999 0.11013333333333333 -0.12906666666666666 0.14546666666666666 -0.07786666666666667 0.044199999999999996 -0.16686666666666666 0.0648 -0.2562 0.05946666666666667 -0.08259999999999999 -0.0006666666666666666 -0.16493333333333332 -0.008933333333333333 -0.24593333333333334 -0.0246 -0.08626666666666666 -0.014466666666666666 -0.16899999999999998 -0.04506666666666666 -0.24393333333333334 -0.0902 -0.07579999999999999 -0.04546666666666666 -0.13866666666666666 -0.10966666666666666 -0.1824 -0.18646666666666667 -0.053133333333333324 -0.09786666666666667 -0.07866666666666666 -0.20833333333333331 -0.07386666666666666 -0.31953333333333334 -0.1539333333333333 0.16106666666666666 -0.33146666666666663 0.29846666666666666 -0.5266666666666666 0.4076666666666667 -0.24826666666666666 0.13653333333333334 -0.5258666666666666 0.21033333333333332 -0.8084666666666666 0.21533333333333332l-0.0708 -0.00013333333333333334c-0.24853333333333333 0.0058 -0.4947333333333333 -0.04906666666666666 -0.7173333333333334 -0.15986666666666666 -0.19326666666666664 -0.09746666666666666 -0.35839999999999994 -0.24280000000000002 -0.47953333333333337 -0.42219999999999996 -0.16546666666666665 0.16686666666666666 -0.3572666666666667 0.30533333333333335 -0.5677333333333333 0.40986666666666666 -0.21839999999999998 0.10706666666666666 -0.4572666666666666 0.16499999999999998 -0.6998 0.1701333333333333l-0.07286666666666666 0c-0.2769333333333333 0.005666666666666667 -0.5514666666666667 -0.05106666666666666 -0.8034666666666667 -0.16599999999999998 -0.22526666666666664 -0.10586666666666666 -0.4241333333333333 -0.2606 -0.5820666666666666 -0.45299999999999996 -0.16266666666666665 -0.20066666666666666 -0.28326666666666667 -0.43206666666666665 -0.35453333333333337 -0.6803999999999999 -0.08133333333333333 -0.27259999999999995 -0.12140000000000001 -0.5558666666666666 -0.11886666666666665 -0.8403333333333333 -0.0074 -0.5428666666666666 0.09946666666666666 -1.0812666666666666 0.31353333333333333 -1.5801999999999998 0.19366666666666665 -0.4523333333333333 0.4759333333333333 -0.8613999999999999 0.8300666666666667 -1.2030666666666665 0.34159999999999996 -0.32766666666666666 0.7440666666666667 -0.5853333333333333 1.1846666666666665 -0.7583333333333333 0.4084 -0.16133333333333333 0.8416666666666666 -0.2496 1.2801333333333331 -0.26106666666666667l0.10126666666666667 -0.0012666666666666666c0.18619999999999998 -0.009133333333333334 0.3697333333333333 0.0474 0.5185333333333333 0.15986666666666666 0.135 0.10273333333333332 0.21153333333333335 0.2649333333333333 0.20493333333333333 0.4344666666666666 0.006466666666666667 0.087 -0.008266666666666665 0.17419999999999997 -0.04306666666666667 0.2542 -0.03393333333333333 0.051666666666666666 -0.0944 0.07953333333333333 -0.15573333333333333 0.07173333333333333 -0.07393333333333332 -0.00019999999999999998 -0.14786666666666665 -0.004333333333333333 -0.22133333333333333 -0.012333333333333332 -0.07819999999999999 -0.010066666666666666 -0.1569333333333333 -0.014866666666666667 -0.23573333333333335 -0.014333333333333332 -0.3075333333333333 0.0027333333333333333 -0.6119333333333333 0.06253333333333333 -0.8976666666666666 0.17626666666666668 -0.30806666666666666 0.12119999999999999 -0.5872666666666666 0.3055333333333333 -0.8198666666666666 0.5410666666666666 -0.26439999999999997 0.2625333333333333 -0.47353333333333336 0.5754666666666666 -0.6148666666666667 0.9202666666666667 -0.16966666666666666 0.4232 -0.25193333333333334 0.8763333333333333 -0.24180000000000001 1.3321999999999998 -0.019666666666666666 0.3061333333333333 0.06406666666666666 0.61 0.2377333333333333 0.8628 0.14473333333333332 0.18286666666666665 0.3635333333333333 0.2901333333333333 0.5950666666666666 0.29379999999999995l0.04646666666666666 -0.0006666666666666666c0.20046666666666668 0.0046 0.39366666666666666 -0.07493333333333332 0.5328666666666666 -0.21933333333333332 0.1446 -0.14906666666666665 0.2606 -0.3234666666666667 0.3422666666666666 -0.5144v-2.188933333333333c0.0037333333333333333 -0.057999999999999996 0.0037333333333333333 -0.1162 0 -0.17419999999999997 -0.008199999999999999 -0.04506666666666666 -0.016399999999999998 -0.08406666666666665 -0.0246 -0.11679999999999999 0 -0.032799999999999996 -0.014333333333333332 -0.06153333333333333 -0.018466666666666666 -0.08613333333333334 -0.0018 -0.02453333333333333 -0.0018 -0.0492 0 -0.07373333333333333 0.003666666666666666 -0.07633333333333334 0.04953333333333333 -0.14426666666666665 0.11886666666666665 -0.17626666666666668 0.0738 -0.0382 0.15466666666666667 -0.060200000000000004 0.2373333333333333 -0.0648l0.0414 -0.0007999999999999999c0.21973333333333334 -0.010533333333333334 0.4364666666666666 0.053733333333333334 0.6148666666666667 0.1824 0.13806666666666667 0.10146666666666666 0.22133333333333333 0.2612 0.22546666666666665 0.43246666666666667v2.3406c-0.00013333333333333334 0.07819999999999999 0.010199999999999999 0.15606666666666666 0.030733333333333335 0.2315333333333333 0.01993333333333333 0.07239999999999999 0.05026666666666666 0.14146666666666666 0.0902 0.205 0.092 0.1346 0.247 0.2121333333333333 0.40986666666666666 0.20493333333333333l-0.006133333333333333 0.018466666666666666c0.1509333333333333 0.003333333333333333 0.2975333333333333 -0.05086666666666667 0.4099333333333333 -0.15166666666666667 0.11993333333333334 -0.112 0.21973333333333334 -0.2437333333333333 0.2951333333333333 -0.38939999999999997 0.08553333333333332 -0.15766666666666665 0.15426666666666666 -0.3239333333333333 0.20493333333333333 -0.496 0.05333333333333333 -0.17833333333333334 0.09633333333333333 -0.34433333333333327 0.13319999999999999 -0.5021333333333333 0.013 -0.07493333333333332 0.038933333333333334 -0.14666666666666667 0.07646666666666666 -0.212l-0.0067333333333333325 -2.4319333333333333c0.005666666666666667 -0.09833333333333333 -0.006133333333333333 -0.1968 -0.034866666666666664 -0.291 -0.02093333333333333 -0.05293333333333333 -0.03206666666666666 -0.10913333333333333 -0.032799999999999996 -0.16606666666666664 0.006266666666666667 -0.07446666666666665 0.052599999999999994 -0.13966666666666666 0.12093333333333334 -0.17006666666666664 0.08953333333333333 -0.04513333333333333 0.18873333333333334 -0.0676 0.289 -0.06559999999999999 0.21986666666666665 -0.012199999999999999 0.43720000000000003 0.05226666666666666 0.6148666666666667 0.1824 0.13953333333333334 0.10366666666666666 0.22226666666666664 0.26686666666666664 0.2234 0.44066666666666665v0.6374c0.10346666666666667 -0.19240000000000002 0.21913333333333332 -0.37786666666666663 0.34633333333333327 -0.5553999999999999 0.12040000000000001 -0.16246666666666665 0.2578 -0.3116 0.4099333333333333 -0.4448 0.13886666666666667 -0.12293333333333334 0.29579999999999995 -0.22386666666666666 0.4652666666666666 -0.29919999999999997 0.14846666666666666 -0.06319999999999999 0.307 -0.09886666666666666 0.46786666666666665 -0.10553333333333333l0.06906666666666667 -0.0010666666666666667c0.22066666666666668 -0.008866666666666665 0.4401333333333333 0.03613333333333333 0.6394666666666666 0.13119999999999998 0.15839999999999999 0.07913333333333333 0.2949333333333333 0.19599999999999998 0.3976 0.34019999999999995 0.09873333333333334 0.13906666666666667 0.1684 0.2966 0.205 0.46319999999999995 0.03766666666666667 0.16333333333333333 0.056933333333333336 0.33039999999999997 0.057333333333333326 0.49806666666666666v3.0927333333333333c0.005333333333333333 0.07473333333333333 0.020533333333333334 0.14846666666666666 0.04513333333333333 0.21926666666666667 0.0254 0.072 0.06593333333333333 0.13766666666666666 0.11886666666666665 0.19266666666666665 0.05433333333333333 0.05173333333333333 0.12539999999999998 0.08146666666666666 0.1996 0.08446666666666666l0.032 -0.00039999999999999996c0.15086666666666665 0.0029333333333333334 0.2972666666666667 -0.05126666666666666 0.40986666666666666 -0.15166666666666667 0.11919999999999999 -0.11213333333333332 0.21833333333333332 -0.24386666666666668 0.2931333333333333 -0.38939999999999997 0.025266666666666666 -0.0472 0.04906666666666666 -0.09506666666666666 0.07146666666666666 -0.1436 -0.03153333333333333 -0.17353333333333332 -0.0464 -0.34986666666666666 -0.044866666666666666 -0.5266 -0.007933333333333334 -0.5442666666666667 0.09893333333333333 -1.0841333333333334 0.3136 -1.5843333333333334 0.19066666666666665 -0.4514666666666667 0.46933333333333327 -0.8604666666666666 0.8198 -1.2030666666666665 0.34159999999999996 -0.32766666666666666 0.7440666666666667 -0.5853333333333333 1.1846666666666665 -0.7583333333333333 0.4084 -0.16133333333333333 0.8416666666666666 -0.2496 1.2801333333333331 -0.26106666666666667l0.10126666666666667 -0.0012666666666666666c0.18619999999999998 -0.008799999999999999 0.3696 0.04773333333333333 0.5185333333333333 0.15986666666666666 0.135 0.10273333333333332 0.21153333333333335 0.2649333333333333 0.20493333333333333 0.4344666666666666 0.006466666666666667 0.087 -0.008266666666666665 0.17419999999999997 -0.04306666666666667 0.2542 -0.03393333333333333 0.051666666666666666 -0.0944 0.07953333333333333 -0.15573333333333333 0.07173333333333333 -0.07393333333333332 -0.00019999999999999998 -0.14786666666666665 -0.004333333333333333 -0.22133333333333333 -0.012333333333333332 -0.07819999999999999 -0.010066666666666666 -0.1569333333333333 -0.014866666666666667 -0.23573333333333335 -0.014333333333333332 -0.3075333333333333 0.0027333333333333333 -0.6119333333333333 0.06253333333333333 -0.8976666666666666 0.17626666666666668 -0.30806666666666666 0.12119999999999999 -0.5872666666666666 0.3055333333333333 -0.8198666666666666 0.5410666666666666 -0.2607333333333333 0.2634666666666666 -0.46626666666666666 0.5763333333333334 -0.6046 0.9202666666666667 -0.12613333333333332 0.31453333333333333 -0.204 0.6457333333333333 -0.23146666666666665 0.9822 0.011533333333333333 0.0398 0.017599999999999998 0.08093333333333333 0.018333333333333333 0.12246666666666667v0.034866666666666664c-0.0013999999999999998 0.02113333333333333 -0.006199999999999999 0.04193333333333333 -0.014333333333333332 0.06146666666666667l-0.0152 0.05153333333333333c0 0.026533333333333332 0.0002666666666666667 0.053066666666666665 0.0008666666666666666 0.07966666666666666 -0.019666666666666666 0.3061333333333333 0.06406666666666666 0.61 0.2377333333333333 0.8628 0.1443333333333333 0.18746666666666667 0.3657333333333333 0.29793333333333333 0.6005333333333334 0.30193333333333333l0.04713333333333333 -0.0006c0.20046666666666668 0.0046 0.39366666666666666 -0.07493333333333332 0.5328666666666666 -0.21933333333333332 0.1446 -0.14906666666666665 0.2606 -0.3234666666666667 0.3422666666666666 -0.5144v-2.1971333333333334c0.0037333333333333333 -0.057999999999999996 0.0037333333333333333 -0.1162 0 -0.17419999999999997 -0.0054666666666666665 -0.030066666666666665 -0.010933333333333333 -0.05739999999999999 -0.016399999999999998 -0.08199999999999999l-0.008199999999999999 -0.0348c-0.008199999999999999 -0.032799999999999996 -0.014333333333333332 -0.06153333333333333 -0.018466666666666666 -0.08613333333333334 -0.0018 -0.02453333333333333 -0.0018 -0.0492 0 -0.07373333333333333 0.003666666666666666 -0.07633333333333334 0.04953333333333333 -0.14426666666666665 0.11886666666666665 -0.17626666666666668 0.08793333333333332 -0.0456 0.1859333333333333 -0.06813333333333332 0.2849333333333333 -0.06559999999999999 0.2198 -0.0114 0.43679999999999997 0.053 0.6148666666666667 0.1824 0.1423333333333333 0.10193333333333333 0.22759999999999997 0.26559999999999995 0.2295333333333333 0.44066666666666665v2.340533333333333c-0.00013333333333333334 0.07826666666666666 0.010199999999999999 0.15613333333333332 0.030733333333333335 0.23159999999999997 0.019866666666666664 0.07239999999999999 0.05026666666666666 0.1414 0.0902 0.205 0.092 0.1346 0.247 0.2121333333333333 0.40986666666666666 0.20493333333333333l-0.02253333333333333 0.010266666666666667c0.1509333333333333 0.003333333333333333 0.29746666666666666 -0.05086666666666667 0.4099333333333333 -0.15166666666666667 0.11986666666666665 -0.10933333333333334 0.22039999999999998 -0.23826666666666665 0.2971333333333333 -0.3812 0.08559999999999998 -0.15766666666666665 0.15426666666666666 -0.3239333333333333 0.205 -0.496 0.015 -0.0502 0.029133333333333334 -0.09933333333333333 0.0426 -0.14766666666666667 -0.035199999999999995 -0.18706666666666666 -0.0508 -0.37806666666666666 -0.04673333333333333 -0.5696666666666667 0.00006666666666666667 -0.4065333333333333 0.0644 -0.8105333333333333 0.1906 -1.1969333333333334 0.118 -0.37546666666666667 0.2951333333333333 -0.7297333333333333 0.5247333333333333 -1.0493999999999999 0.2156 -0.2995333333333333 0.4887333333333333 -0.5531333333333333 0.8034 -0.746 0.2882 -0.17493333333333333 0.6164666666666666 -0.27186666666666665 0.9526 -0.282l0.07213333333333333 -0.0008666666666666666c0.2377333333333333 -0.0078 0.4736666666666667 0.0436 0.6866 0.14959999999999998 0.17419999999999997 0.0888 0.32946666666666663 0.2106 0.4570666666666666 0.35873333333333335 0.11253333333333333 0.13433333333333333 0.19873333333333332 0.2886666666666666 0.2541333333333333 0.4549333333333333 0.0492 0.13766666666666666 0.07619999999999999 0.28226666666666667 0.07993333333333333 0.42839999999999995 0.0014666666666666667 0.08986666666666666 -0.0266 0.17766666666666667 -0.07993333333333333 0.25 -0.052599999999999994 0.07313333333333333 -0.11786666666666668 0.1363333333333333 -0.19266666666666665 0.18653333333333333 -0.07766666666666666 0.05093333333333333 -0.16266666666666665 0.08966666666666667 -0.25206666666666666 0.11479999999999999 -0.07913333333333333 0.023066666666666666 -0.16146666666666665 0.033466666666666665 -0.24393333333333334 0.030733333333333335 -0.06386666666666665 -0.0016666666666666666 -0.12506666666666666 -0.0264 -0.1721333333333333 -0.06966666666666665 -0.04606666666666666 -0.0504 -0.06166666666666666 -0.12153333333333333 -0.040999999999999995 -0.18653333333333333 -0.0236 -0.07253333333333332 -0.04273333333333333 -0.14646666666666666 -0.05739999999999999 -0.22133333333333333 -0.01873333333333333 -0.08859999999999998 -0.04973333333333333 -0.1741333333333333 -0.0922 -0.2541333333333333 -0.044 -0.0804 -0.1048 -0.15033333333333332 -0.17833333333333334 -0.205 -0.09159999999999999 -0.061933333333333326 -0.20106666666666664 -0.0922 -0.31153333333333333 -0.08606666666666665 -0.15473333333333333 0.007 -0.3011333333333333 0.07213333333333333 -0.40986666666666666 0.1824 -0.14966666666666667 0.14366666666666666 -0.2713333333333333 0.31399999999999995 -0.3586666666666667 0.5021333333333333 -0.11086666666666667 0.2372 -0.1948 0.48606666666666665 -0.25006666666666666 0.7419333333333333 -0.0654 0.2954 -0.09766666666666665 0.5972 -0.09633333333333333 0.8997333333333333 -0.004866666666666667 0.2544666666666666 0.0354 0.5077333333333334 0.11886666666666665 0.7481333333333333 0.06993333333333332 0.2042 0.18319999999999997 0.3908666666666667 0.3320666666666666 0.5471999999999999 0.14166666666666666 0.14826666666666666 0.3146 0.26313333333333333 0.5062 0.3361333333333333 0.2028 0.07753333333333333 0.4182666666666666 0.1164 0.6353333333333333 0.11473333333333333 0.27326666666666666 0.0067333333333333325 0.5447333333333333 -0.0464 0.7952666666666667 -0.15573333333333333 0.21719999999999998 -0.09713333333333332 0.41293333333333326 -0.23646666666666666 0.5759333333333333 -0.4099333333333333 0.15699999999999997 -0.17033333333333334 0.2857333333333333 -0.3648 0.3812 -0.5758666666666666 0.092 -0.20626666666666665 0.16073333333333334 -0.4221333333333333 0.20493333333333333 -0.6436 0.004266666666666667 -0.02953333333333333 0.011533333333333333 -0.0582 0.021533333333333335 -0.08573333333333333l-0.019466666666666667 -6.331333333333333c0.0027999999999999995 -0.08146666666666666 -0.006199999999999999 -0.16293333333333332 -0.026666666666666665 -0.24186666666666667 -0.012333333333333332 -0.049666666666666665 -0.030266666666666667 -0.0978 -0.053266666666666664 -0.14346666666666666 -0.0096 -0.0196 -0.0208 -0.03833333333333333 -0.0334 -0.05606666666666666l-0.019866666666666664 -0.02593333333333333c-0.01693333333333333 -0.017666666666666664 -0.026466666666666666 -0.04113333333333333 -0.026666666666666665 -0.06553333333333333 0.0012666666666666666 -0.029733333333333334 0.018533333333333332 -0.05639999999999999 0.04506666666666666 -0.06973333333333333 0.03866666666666667 -0.021666666666666667 0.07999999999999999 -0.0382 0.123 -0.0492 0.05366666666666667 -0.014933333333333333 0.10853333333333333 -0.0252 0.16393333333333332 -0.030733333333333335 0.0572 -0.006466666666666667 0.11466666666666665 -0.009866666666666666 0.17219999999999996 -0.010199999999999999 0.21986666666666665 -0.012399999999999998 0.4372666666666667 0.052066666666666664 0.6148666666666667 0.1824Zm6.829066666666667 4.636066666666666c-0.12293333333333334 -0.0015999999999999999 -0.24246666666666666 0.03973333333333333 -0.33819999999999995 0.11679999999999999 -0.10546666666666667 0.08586666666666666 -0.19373333333333334 0.19086666666666666 -0.26026666666666665 0.30946666666666667 -0.07693333333333333 0.1354 -0.13813333333333333 0.27913333333333334 -0.18246666666666667 0.4283333333333333 -0.047799999999999995 0.15826666666666667 -0.0868 0.31906666666666667 -0.11679999999999999 0.4816666666666667 -0.02946666666666667 0.15239999999999998 -0.049999999999999996 0.30633333333333335 -0.06146666666666667 0.4611333333333333 -0.010199999999999999 0.12133333333333332 -0.013600000000000001 0.24313333333333334 -0.010266666666666667 0.3648 -0.0030666666666666663 0.041666666666666664 -0.0030666666666666663 0.08339999999999999 0 0.12506666666666666v0.13113333333333332c0.19353333333333333 -0.07993333333333333 0.3744666666666666 -0.18766666666666665 0.5369999999999999 -0.3197333333333333 0.1586 -0.12633333333333333 0.2968666666666666 -0.2763333333333333 0.40986666666666666 -0.4447333333333333 0.23086666666666666 -0.3410666666666667 0.35306666666666664 -0.7440666666666667 0.3504666666666666 -1.1559333333333333 0.007466666666666667 -0.12826666666666664 -0.0232 -0.25593333333333335 -0.08813333333333334 -0.3668666666666667 -0.05033333333333333 -0.08386666666666666 -0.142 -0.134 -0.2397333333333333 -0.13113333333333332Z" stroke-width="0.6667"></path>
  <path fill="#e4a663" d="M46.14653333333334 33.52253333333333c0.45699999999999996 0 0.6148666666666667 -0.10653333333333333 0.8320666666666666 -0.47753333333333337 0.21726666666666666 -0.37093333333333334 0.11273333333333332 -0.9735333333333333 0.10453333333333333 -1.1374666666666666 -0.020466666666666668 -0.36073333333333335 -0.1414 -0.7624666666666666 -0.1578 -0.9632666666666667 0 -0.123 0 -0.908 0.018466666666666666 -1.2297333333333333 0.27459999999999996 -5.091066666666666 2.4594666666666667 -6.302333333333333 3.0906666666666665 -6.439666666666666 0.40259999999999996 -0.11866666666666666 0.8344 -0.08959999999999999 1.2174666666666667 0.08199999999999999V13.392c0 -1.1252 -0.7993333333333333 -2.5086666666666666 -1.7749333333333333 -3.0743333333333336L33.519333333333336 1.0947666666666667c-0.9838 -0.5697713333333333 -2.5885999999999996 -0.5697713333333333 -3.555933333333333 -0.006146666666666667L14.022066666666667 10.299266666666666c-0.9735333333333333 0.5636 -1.7728666666666666 1.9470666666666665 -1.7708 3.0742666666666665v2.0126666666666666c-0.0007999999999999999 0.0116 -0.0007999999999999999 0.023266666666666665 0 0.034866666666666664v2.939c0.0922 0.05126666666666666 0.18446666666666667 0.10453333333333333 0.2766666666666666 0.16193333333333332 0.30946666666666667 0.20493333333333333 0.6148666666666667 0.31766666666666665 0.9263999999999999 0.5328666666666666 0.8877333333333333 0.5409333333333333 1.7126000000000001 1.1788666666666665 2.4594666666666667 1.9020000000000001 0.14553333333333332 0.1393333333333333 0.6312666666666666 0.7501333333333333 0.746 0.8936 0.3528 0.48606666666666665 0.7493333333333334 0.9388666666666667 1.1846666666666665 1.3526666666666665 0.24046666666666666 0.21926666666666667 0.5052 0.41046666666666665 0.7890666666666666 0.5698 0.46933333333333327 0.24386666666666668 1.2440666666666667 0.18853333333333333 1.6396 0.014333333333333332 3.037466666666666 -1.3157999999999999 4.943533333333333 -0.6558666666666666 5.822733333333333 -0.12706666666666666 2.1746 1.3055333333333332 2.9001333333333332 3.1316666666666664 3.1317333333333335 5.349266666666666 0.0304 0.28726666666666667 0.039999999999999994 0.5762666666666666 0.028666666666666663 0.8649333333333333 0 0.5267333333333333 -0.018466666666666666 1.3732 0.5369999999999999 1.5146 0.7972666666666666 0.20493333333333333 0.9899333333333333 -0.6476666666666666 1.1088 -1.2133333333333334 0.26846666666666663 -1.281 1.9736666666666667 -2.1212666666666666 3.221866666666666 -1.4756666666666665 0.8607999999999999 0.4447333333333333 1.2133333333333334 0.6968666666666665 2.0638666666666667 0.3218 1.0637333333333332 -0.46939999999999993 1.613 -1.6642666666666666 1.9839333333333333 -2.2996 0.36653333333333327 -0.6186666666666667 0.8971333333333332 -1.1237333333333333 1.5330666666666666 -1.4592666666666665 1.6601333333333335 -1.035 5.832999999999999 -0.7665333333333333 5.984666666666667 3.8326l0 1.2789333333333333c0 0.4386 0.014333333333333332 0.8669333333333333 -0.014333333333333332 1.3199333333333332 -0.018466666666666666 0.3012666666666667 -0.07173333333333333 0.6148 -0.10046666666666666 0.9243333333333333 -0.008133333333333333 0 -0.16393333333333332 0.8997333333333333 0.5718666666666666 0.9037999999999999Z" stroke-width="0.6667"></path>
  <path fill="#5e464d" d="M51.24759999999999 23.365c-0.11273333333333332 -0.0348 -0.44066666666666665 -0.25 -1.2133333333333334 -0.08193333333333333 -0.6333333333333333 0.13726666666666665 -2.8160666666666665 1.3485333333333334 -3.0906666666666665 6.4395999999999995 -0.016399999999999998 0.3136 -0.026666666666666665 1.0985999999999998 -0.018466666666666666 1.2297333333333333 0.016399999999999998 0.20493333333333333 0.1373333333333333 0.6026 0.1578 0.9632666666666667 0 0.16399999999999998 0.125 0.7583333333333333 -0.10453333333333333 1.1375333333333333 -0.2295333333333333 0.3791333333333333 -0.37506666666666666 0.4796 -0.8321333333333333 0.47753333333333337 -0.7357333333333332 0 -0.58 -0.9038666666666666 -0.58 -0.9038666666666666 0.028733333333333333 -0.3054 0.08199999999999999 -0.6148666666666667 0.10046666666666666 -0.9243333333333333 0.028666666666666663 -0.4529333333333333 0.014333333333333332 -0.8812666666666666 0.014333333333333332 -1.3198666666666665l0 -1.2789333333333333c-0.15166666666666667 -4.5992 -4.324533333333333 -4.867666666666667 -5.984666666666667 -3.8326666666666664 -0.6359333333333332 0.33559999999999995 -1.1665333333333332 0.8406666666666666 -1.5330666666666666 1.4592666666666665 -0.37093333333333334 0.6354 -0.9202 1.8302666666666667 -1.9839333333333333 2.2996 -0.8505333333333334 0.37506666666666666 -1.2030666666666665 0.123 -2.0638666666666667 -0.3218 -1.2482 -0.6456 -2.9534000000000002 0.19473333333333334 -3.221866666666666 1.4756666666666665 -0.11893333333333334 0.5657333333333333 -0.31153333333333333 1.4162666666666666 -1.1088 1.2133333333333334 -0.5554666666666667 -0.1414 -0.5369999999999999 -0.9878666666666667 -0.5369999999999999 -1.5146 0.011266666666666664 -0.28859999999999997 0.0017333333333333333 -0.5776666666666667 -0.028733333333333333 -0.8648666666666666 -0.23159999999999997 -2.2176 -0.9571333333333333 -4.043733333333333 -3.1316666666666664 -5.349333333333332 -0.8792666666666666 -0.5287333333333333 -2.785333333333333 -1.1887333333333332 -5.822733333333333 0.12706666666666666 -0.4099333333333333 0.17419999999999997 -1.1764666666666665 0.22959999999999997 -1.6396 -0.014333333333333332 -0.28386666666666666 -0.15933333333333333 -0.5486 -0.3504666666666666 -0.7891333333333332 -0.5697333333333333 -0.43533333333333335 -0.4138 -0.8318666666666666 -0.8666 -1.1845999999999999 -1.3527333333333333 -0.11479999999999999 -0.14346666666666666 -0.6005333333333334 -0.7542 -0.7460666666666667 -0.8936 -0.7468 -0.7231333333333333 -1.5716666666666665 -1.361 -2.4593999999999996 -1.9019333333333333 -0.31153333333333333 -0.205 -0.6148666666666667 -0.3361333333333333 -0.9263999999999999 -0.5329333333333333 -0.09226666666666666 -0.057333333333333326 -0.18446666666666667 -0.11066666666666666 -0.2766666666666666 -0.16186666666666666v13.4388c0 1.1272666666666666 0.7992666666666667 2.5106666666666664 1.7748666666666666 3.0743333333333336l15.957733333333332 9.222866666666667c0.9755333333333334 0.5656666666666667 2.5721333333333334 0.5656666666666667 3.5477333333333334 0l15.959733333333332 -9.2106c0.9756 -0.5636 1.7728666666666666 -1.9470666666666665 1.7708 -3.0743333333333336l-0.006133333333333333 -8.454333333333333Z" stroke-width="0.6667"></path>
  <path fill="#ffffff" d="M33.775666666666666 21.1064c-1.1026666666666665 0.6374666666666666 -2.908333333333333 0.6374666666666666 -4.010933333333333 0l-16.318466666666666 -8.608c0.18446666666666667 0.1824 16.548 9.688133333333333 16.548 9.688133333333333 0.9756 0.5656666666666667 2.5721333333333334 0.5656666666666667 3.5477333333333334 0 0 0 16.341 -9.477066666666666 16.525399999999998 -9.659466666666667l-16.291733333333333 8.579333333333333Z" stroke-width="0.6667"></path>
  <path fill="#ffffff" d="M29.73753333333333 2.32246c1.1046666666666667 -0.6312599999999999 2.9082666666666666 -0.6312599999999999 4.013 0.0020466666666666663l1.9777999999999998 0.81982c-0.18446666666666667 -0.18241333333333332 -2.2093999999999996 -1.4941133333333332 -2.2093999999999996 -1.4941133333333332 -0.9756 -0.5636266666666666 -2.570133333333333 -0.5656733333333333 -3.545733333333333 0 0 0 -3.2341333333333333 1.89992 -3.4165333333333328 2.08028l3.1808666666666667 -1.4080333333333332Z" stroke-width="0.6667"></path>
</svg>